PathFileType	4	(X/Y/Z)	SUBJ26_3_walk_RCNL2025.trc
DataRate	CameraRate	NumFrames	NumMarkers	Units	OrigDataRate	OrigDataStartFrame	OrigNumFrames
100	100	10	25	mm	100	190	379
Frame#	Time	R_Shoulder			L_Shoulder			C7			J_Notch			R_Elbow			L_Elbow			R_Wrist			L_Wrist			R_Asis			L_Asis			Sacral			Thoracic			Sternum			R_Thigh_Lateral			R_Knee_Lateral			R_Shank_Lateral			R_Ankle_Lateral			R_Heel			R_Toe			L_Thigh_Lateral			L_Knee_Lateral			L_Shank_Lateral			L_Ankle_Lateral			L_Heel			L_Toe		
		X1	Y1	Z1	X2	Y2	Z2	X3	Y3	Z3	X4	Y4	Z4	X5	Y5	Z5	X6	Y6	Z6	X7	Y7	Z7	X8	Y8	Z8	X9	Y9	Z9	X10	Y10	Z10	X11	Y11	Z11	X12	Y12	Z12	X13	Y13	Z13	X14	Y14	Z14	X15	Y15	Z15	X16	Y16	Z16	X17	Y17	Z17	X18	Y18	Z18	X19	Y19	Z19	X20	Y20	Z20	X21	Y21	Z21	X22	Y22	Z22	X23	Y23	Z23	X24	Y24	Z24	X25	Y25	Z25
190	1.89000000	-149.894943	1323.615112	356.054962	-160.503387	1333.634766	22.322906	-239.272079	1387.122070	201.278534	-92.868736	1290.124146	183.478104	-234.672089	1010.366699	457.616608	-202.802811	1011.716248	-82.893639	-145.711296	773.728821	444.278687	-79.917858	796.370483	-79.512651	-115.984474	923.341919	309.059814	-161.956467	913.183655	8.181158	-341.427002	929.417664	197.396454	-321.274597	1043.075195	185.573334	-56.868855	1028.820679	180.265381	-191.639557	585.053955	356.750427	-169.468292	436.057373	286.937866	-188.865616	284.103577	321.941589	-215.657089	52.189552	247.109482	-269.231018	40.083519	187.942596	-95.084877	43.420940	223.638290	-175.659164	601.115479	-32.062660	-134.247391	448.881104	32.912514	-242.985397	319.399841	-37.059834	-371.516174	153.669861	50.602577	-430.389374	176.090027	103.768707	-292.196289	68.002556	92.032204
191	1.90000000	-135.984879	1323.797485	356.418945	-149.505783	1333.859619	22.704592	-226.549072	1387.508179	202.536880	-80.596809	1290.121826	183.421371	-219.701920	1010.930054	459.435638	-195.837982	1012.116333	-82.155594	-128.066727	775.420349	444.262817	-77.022060	794.533081	-80.110971	-104.185516	923.347839	310.267426	-149.851547	914.552002	9.461248	-329.519775	929.704590	197.540024	-309.237335	1043.554077	186.983109	-44.983696	1028.978027	180.094238	-182.214142	585.394043	357.433929	-166.289764	435.899017	286.597321	-187.023315	284.037415	321.793030	-215.575699	52.288792	247.104904	-269.171204	40.243034	187.896973	-94.962013	43.347366	223.483383	-157.152283	602.832825	-31.941969	-111.831581	451.182281	33.294643	-216.547775	317.399048	-35.996845	-336.953033	146.214905	52.563198	-396.551483	164.920807	106.645210	-252.210114	65.340034	91.553276
192	1.91000000	-122.156647	1323.666504	356.766724	-138.537247	1333.887451	23.091000	-213.869598	1387.614746	203.813370	-68.355583	1289.864990	183.322922	-204.734177	1011.166931	461.245667	-188.966858	1012.376953	-81.454308	-110.420292	776.832672	444.256409	-74.301073	792.623810	-80.691858	-92.501373	923.283386	311.654297	-137.482239	915.573181	10.932831	-317.610382	929.639343	197.371201	-297.236725	1043.732544	188.232529	-33.025249	1028.857910	179.901337	-172.760147	585.488708	358.056610	-163.248276	435.736664	286.253967	-185.326965	284.011200	321.671082	-215.503601	52.387707	247.078949	-269.127777	40.408733	187.842346	-94.841049	43.276760	223.328964	-138.682037	604.417664	-31.899483	-89.979279	453.280914	33.802071	-190.301498	315.118408	-34.875004	-301.545044	138.289886	54.365807	-361.623169	153.084503	109.417213	-211.589233	62.645519	90.859993
193	1.92000000	-108.419830	1323.225098	357.092957	-127.579239	1333.720825	23.473593	-201.224335	1387.456421	205.086823	-56.135902	1289.365601	183.188995	-189.749832	1011.068970	463.029327	-182.168503	1012.496765	-80.782463	-92.788467	777.943817	444.273819	-71.708282	790.643829	-81.250563	-80.916183	923.103210	313.167908	-124.882698	916.218994	12.520283	-305.687439	929.267456	196.971863	-285.261841	1043.622803	189.321976	-20.987352	1028.493286	179.684967	-163.353439	585.349426	358.611084	-160.331268	435.599945	285.915833	-183.779953	284.031830	321.583771	-215.446075	52.484417	247.022446	-269.104034	40.586109	187.775635	-94.730400	43.209255	223.181351	-120.335739	605.837524	-31.889185	-68.705490	455.147491	34.437878	-164.265518	312.602509	-33.678516	-265.303467	130.060791	55.982517	-325.573425	140.786072	112.064735	-170.420837	60.050503	89.954491
194	1.93000000	-94.779465	1322.483398	357.388153	-116.611107	1333.362427	23.843832	-188.606567	1387.047363	206.334061	-43.931675	1288.638916	183.030273	-174.728073	1010.638000	464.762909	-175.424118	1012.474670	-80.127563	-75.186472	778.739136	444.328461	-69.191477	788.602570	-81.789824	-69.399689	922.765259	314.748932	-112.081581	916.478027	14.144553	-293.742920	928.645020	196.430313	-273.297516	1043.245972	190.257797	-8.875103	1027.915894	179.442307	-154.093674	585.004578	359.092682	-157.532333	435.517487	285.593811	-182.391144	284.114563	321.533508	-215.408081	52.586700	246.935287	-269.100403	40.788078	187.690475	-94.637962	43.144127	223.047852	-102.228745	607.052063	-31.876226	-48.021698	456.744141	35.196922	-138.430801	309.870911	-32.403580	-228.252335	121.697746	57.397991	-288.389526	128.250748	114.548637	-128.776901	57.683907	88.865112
195	1.94000000	-81.238075	1321.457764	357.642365	-105.609016	1332.815308	24.193647	-176.012329	1386.399780	207.531479	-31.738432	1287.702637	182.859192	-159.649872	1009.886536	466.417297	-168.713760	1012.309998	-79.471184	-57.625910	779.212738	444.432022	-66.697346	786.515686	-82.317095	-57.908825	922.239075	316.334991	-99.112106	916.351624	15.733956	-281.768036	927.827393	195.831436	-261.324615	1042.626831	191.052841	3.299125	1027.149658	179.173233	-145.107483	584.497070	359.496216	-154.854248	435.513519	285.298737	-181.170654	284.281891	321.516632	-215.392776	52.708832	246.819000	-269.116486	41.037712	187.579163	-94.569778	43.079765	222.934662	-84.482445	608.017090	-31.835251	-27.937220	458.024933	36.065659	-112.753746	306.921906	-31.063042	-190.431274	113.374924	58.609959	-250.098495	115.722984	116.815750	-86.735825	55.666538	87.656334
196	1.95000000	-67.798096	1320.168945	357.848022	-94.547157	1332.082642	24.515072	-163.440628	1385.523560	208.656265	-19.551151	1286.576660	182.687180	-144.499161	1008.837402	467.962860	-162.014404	1012.003540	-78.791878	-40.113265	779.368683	444.592987	-64.177206	784.401642	-82.841211	-46.396484	921.508789	317.863556	-86.027321	915.844360	17.234913	-269.750397	926.858215	195.248215	-249.321106	1041.787720	191.726135	15.522200	1026.209229	178.880249	-136.536407	583.882263	359.818604	-152.299698	435.605560	285.039154	-180.120697	284.559448	321.524200	-215.399536	52.869373	246.670822	-269.150116	41.366619	187.432144	-94.528572	43.014545	222.843948	-67.195396	608.688049	-31.739206	-8.458743	458.940338	37.023468	-87.150330	303.743500	-29.687666	-151.896988	105.270660	59.627956	-210.788376	103.457893	118.809937	-44.392593	54.109695	86.426193
197	1.96000000	-54.460785	1318.641235	358.001068	-83.400566	1331.168579	24.799494	-150.893005	1384.427490	209.687866	-7.362280	1285.280273	182.522644	-129.265167	1007.520996	469.372650	-155.300201	1011.559509	-78.072746	-22.652122	779.219940	444.814682	-61.591167	782.277252	-83.369152	-34.819641	920.570801	319.275665	-72.900757	914.960693	18.614128	-257.676575	925.763611	194.736679	-237.264999	1040.745850	192.300247	27.785540	1025.099731	178.564819	-128.517303	583.221313	360.061157	-149.854431	435.803009	284.818756	-179.221832	284.968964	321.540100	-215.422806	53.088902	246.479568	-269.193085	41.808807	187.232895	-94.512581	42.947876	222.772263	-50.432350	609.022217	-31.553036	10.412948	459.444519	38.046425	-61.495014	300.330750	-28.325914	-112.719536	97.567795	60.467205	-170.609573	91.710960	120.478134	-1.860760	53.113049	85.295792
198	1.97000000	-41.223373	1316.903076	358.100952	-72.147758	1330.079590	25.038052	-138.371841	1383.121338	210.609894	4.838909	1283.831909	182.369431	-113.946381	1005.971924	470.623627	-148.543976	1010.987061	-77.309540	-5.247188	778.786957	445.093643	-58.909105	780.154236	-83.903851	-23.141708	919.428528	320.520477	-59.806664	913.712158	19.849030	-245.535507	924.552673	194.335205	-225.138489	1039.513306	192.797165	40.087639	1023.820435	178.224426	-121.163261	582.576721	360.228821	-147.471634	436.106781	284.633453	-178.422455	285.521027	321.539825	-215.453308	53.388882	246.225342	-269.228271	42.394997	186.954056	-94.514854	42.880898	222.711609	-34.239262	608.979858	-31.238535	28.686714	459.504639	39.111885	-35.632912	296.705475	-27.040941	-72.984650	90.451393	61.141640	-129.760208	80.726959	121.778496	40.730389	52.764229	84.396729
199	1.98000000	-28.077530	1314.988403	358.150360	-60.773346	1328.824951	25.223007	-125.878586	1381.616699	211.411835	17.065443	1282.249023	182.226685	-98.553230	1004.226562	471.697266	-141.717438	1010.300171	-76.512474	12.092920	778.096405	445.420670	-56.110016	778.038666	-84.443827	-11.331285	918.089600	321.559387	-46.796238	912.126282	20.917721	-233.318863	923.222778	194.066849	-212.931427	1038.099976	193.233246	52.432648	1022.369873	177.853775	-114.541847	582.012207	360.327454	-145.064957	436.510559	284.470276	-177.637543	286.212250	321.493347	-215.480057	53.791859	245.884476	-269.231293	43.151257	186.561005	-94.522995	42.816975	222.653168	-18.661345	608.527527	-30.762167	46.382862	459.109283	40.202873	-9.413241	292.933044	-25.901003	-32.812531	84.100861	61.664852	-88.474068	70.728241	122.690674	83.233696	53.138268	83.855827
